<svg xmlns="http://www.w3.org/2000/svg" width="900" height="796" viewBox="0 0 900 796">
<g>
<path d="M 213.19 682.62 L 198.88 690.00 L 159.50 690.00 C134.86,690.00 119.89,689.63 119.51,689.02 C119.18,688.48 142.20,676.40 170.70,662.16 C232.72,631.16 271.80,611.27 282.00,605.50 C286.12,603.17 293.33,599.24 298.00,596.77 C302.67,594.30 311.00,589.90 316.50,586.99 C326.07,581.94 352.57,567.26 369.50,557.64 C405.35,537.27 434.04,514.22 433.98,505.82 C433.91,497.02 415.69,481.42 376.38,456.50 C366.64,450.33 334.76,430.73 330.00,427.99 C328.08,426.88 321.10,422.61 314.50,418.51 C307.90,414.41 301.15,410.31 299.50,409.40 C297.85,408.48 290.42,403.83 283.00,399.05 C275.58,394.27 266.05,388.15 261.82,385.43 C212.28,353.60 190.87,332.29 185.98,309.93 C185.25,306.59 184.94,300.17 185.21,293.93 C185.58,285.23 186.10,282.59 188.33,278.00 C192.25,269.95 196.44,264.46 205.34,255.70 C217.36,243.88 248.68,224.00 276.50,210.53 C309.66,194.47 314.97,192.19 366.00,171.97 C373.98,168.81 383.88,164.79 388.00,163.04 C392.12,161.29 396.62,159.48 398.00,159.01 C399.38,158.55 406.12,156.06 413.00,153.49 C419.88,150.91 430.45,147.12 436.50,145.05 C442.55,142.99 454.02,138.96 462.00,136.10 C496.11,123.87 504.25,121.08 532.17,112.08 C543.06,108.58 546.08,108.00 553.64,108.00 C563.77,108.00 563.74,108.96 553.50,112.94 C550.20,114.23 538.72,118.99 528.00,123.54 C504.30,133.57 493.74,137.96 480.00,143.49 C466.97,148.73 447.95,156.99 423.72,167.94 C420.00,169.62 416.69,171.00 416.37,171.00 C416.06,171.00 410.33,173.52 403.65,176.60 C385.89,184.80 380.99,187.00 380.55,187.00 C378.08,187.00 295.52,227.60 281.94,235.49 C275.78,239.07 270.53,242.00 270.26,242.00 C269.68,242.00 248.81,255.22 244.25,258.48 C231.57,267.53 222.54,276.76 216.21,287.12 C210.77,296.02 215.47,309.61 228.45,322.51 C234.64,328.65 248.27,339.55 258.98,346.92 C276.60,359.02 299.43,373.19 335.00,394.07 C336.92,395.21 341.20,397.72 344.50,399.66 C347.80,401.60 352.30,404.21 354.50,405.46 C356.70,406.70 360.75,409.07 363.50,410.71 C366.25,412.35 371.42,415.41 375.00,417.51 C378.58,419.61 383.75,422.76 386.50,424.50 C389.25,426.25 398.92,432.31 408.00,437.98 C417.08,443.65 424.73,448.57 425.00,448.91 C425.27,449.25 428.65,451.67 432.50,454.28 C446.65,463.90 461.91,481.13 466.30,492.45 C468.79,498.83 468.86,510.46 466.46,517.49 C463.74,525.47 456.46,535.58 446.63,545.05 C432.64,558.53 419.26,568.15 391.50,584.71 C365.73,600.09 337.01,616.39 320.00,625.28 C314.77,628.02 308.48,631.48 306.00,632.99 C300.92,636.08 280.61,647.04 252.50,661.86 C242.05,667.37 232.15,672.63 230.50,673.56 C228.85,674.48 221.06,678.56 213.19,682.62 ZM 527.77 690.35 C514.97,690.68 503.09,691.24 501.37,691.58 C499.52,691.94 497.96,691.74 497.56,691.10 C496.88,690.00 498.98,687.71 535.06,650.00 C628.63,552.21 664.04,505.20 663.99,478.85 C663.96,464.13 656.79,453.97 636.98,440.56 C620.69,429.54 594.71,415.63 570.50,404.99 C563.35,401.84 550.75,396.24 542.50,392.53 C534.25,388.83 524.35,384.53 520.50,382.99 C516.65,381.45 505.85,376.95 496.50,372.99 C487.15,369.04 473.65,363.42 466.50,360.51 C438.01,348.93 414.50,337.22 399.00,326.91 C391.74,322.09 383.29,313.46 379.19,306.68 C376.22,301.76 375.89,300.46 375.89,293.57 C375.89,287.61 376.42,284.77 378.29,280.71 C383.90,268.55 401.05,254.25 431.50,236.35 C452.35,224.10 528.41,186.99 566.50,170.48 C573.10,167.62 586.15,161.88 595.50,157.72 C604.85,153.56 616.10,148.74 620.50,147.01 C624.90,145.27 635.25,141.03 643.50,137.58 C651.75,134.12 661.20,130.26 664.50,128.99 C667.80,127.72 672.30,125.90 674.50,124.94 C676.70,123.97 686.31,119.97 695.85,116.04 C711.63,109.54 713.98,108.84 721.85,108.38 C729.96,107.89 730.38,107.96 728.50,109.50 C727.40,110.39 708.95,119.93 687.50,130.68 C616.82,166.11 554.68,197.64 543.50,203.73 C537.45,207.04 527.33,212.45 521.00,215.76 C514.67,219.08 507.25,223.00 504.50,224.48 C501.75,225.96 495.23,229.46 490.00,232.26 C484.77,235.06 478.92,238.33 477.00,239.52 C475.08,240.72 470.58,243.29 467.00,245.23 C435.77,262.20 405.00,285.32 405.00,291.83 C405.00,293.66 411.35,300.24 416.50,303.72 C421.53,307.13 444.28,318.65 454.69,323.06 C460.08,325.35 466.75,328.25 469.50,329.51 C479.24,333.95 489.03,338.00 490.06,338.00 C490.64,338.00 493.22,338.95 495.80,340.11 C504.11,343.83 506.25,344.72 521.50,350.85 C548.20,361.57 575.39,372.70 580.00,374.79 C582.47,375.91 588.55,378.62 593.50,380.80 C623.51,394.07 646.79,405.95 655.97,412.67 C658.46,414.49 662.51,417.45 664.96,419.24 C671.55,424.06 683.35,436.63 687.12,442.84 C688.93,445.83 691.89,452.53 693.71,457.73 C696.77,466.51 697.00,468.10 697.00,479.94 C697.00,486.96 696.60,494.01 696.10,495.60 C695.61,497.20 694.42,501.20 693.46,504.50 C689.22,519.04 672.31,547.24 654.04,570.21 C651.54,573.35 646.80,579.36 643.50,583.56 C624.36,607.95 591.91,645.49 561.31,678.62 L 551.05 689.73 Z" fill="rgb(5,6,4)"/>
<path d="M 0.00 398.00 L 0.00 0.00 L 450.00 0.00 L 900.00 0.00 L 900.00 398.00 L 900.00 796.00 L 450.00 796.00 L 0.00 796.00 L 0.00 398.00 ZM 527.77 690.35 L 551.05 689.73 L 561.31 678.62 C591.91,645.49 624.36,607.95 643.50,583.56 C646.80,579.36 651.54,573.35 654.04,570.21 C672.31,547.24 689.22,519.04 693.46,504.50 C694.42,501.20 695.61,497.20 696.10,495.60 C696.60,494.01 697.00,486.96 697.00,479.94 C697.00,468.10 696.77,466.51 693.71,457.73 C691.89,452.53 688.93,445.83 687.12,442.84 C683.35,436.63 671.55,424.06 664.96,419.24 C662.51,417.45 658.46,414.49 655.97,412.67 C646.79,405.95 623.51,394.07 593.50,380.80 C588.55,378.62 582.47,375.91 580.00,374.79 C575.39,372.70 548.20,361.57 521.50,350.85 C506.25,344.72 504.11,343.83 495.80,340.11 C493.22,338.95 490.64,338.00 490.06,338.00 C489.03,338.00 479.24,333.95 469.50,329.51 C466.75,328.25 460.08,325.35 454.69,323.06 C444.28,318.65 421.53,307.13 416.50,303.72 C411.35,300.24 405.00,293.66 405.00,291.83 C405.00,285.32 435.77,262.20 467.00,245.23 C470.58,243.29 475.08,240.72 477.00,239.52 C478.92,238.33 484.77,235.06 490.00,232.26 C495.23,229.46 501.75,225.96 504.50,224.48 C507.25,223.00 514.67,219.08 521.00,215.76 C527.33,212.45 537.45,207.04 543.50,203.73 C554.68,197.64 616.82,166.11 687.50,130.68 C708.95,119.93 727.40,110.39 728.50,109.50 C730.38,107.96 729.96,107.89 721.85,108.38 C713.98,108.84 711.63,109.54 695.85,116.04 C686.31,119.97 676.70,123.97 674.50,124.94 C672.30,125.90 667.80,127.72 664.50,128.99 C661.20,130.26 651.75,134.12 643.50,137.58 C635.25,141.03 624.90,145.27 620.50,147.01 C616.10,148.74 604.85,153.56 595.50,157.72 C586.15,161.88 573.10,167.62 566.50,170.48 C528.41,186.99 452.35,224.10 431.50,236.35 C401.05,254.25 383.90,268.55 378.29,280.71 C376.42,284.77 375.89,287.61 375.89,293.57 C375.89,300.46 376.22,301.76 379.19,306.68 C383.29,313.46 391.74,322.09 399.00,326.91 C414.50,337.22 438.01,348.93 466.50,360.51 C473.65,363.42 487.15,369.04 496.50,372.99 C505.85,376.95 516.65,381.45 520.50,382.99 C524.35,384.53 534.25,388.83 542.50,392.53 C550.75,396.24 563.35,401.84 570.50,404.99 C594.71,415.63 620.69,429.54 636.98,440.56 C656.79,453.97 663.96,464.13 663.99,478.85 C664.04,505.20 628.63,552.21 535.06,650.00 C498.98,687.71 496.88,690.00 497.56,691.10 C497.96,691.74 499.52,691.94 501.37,691.58 C503.09,691.24 514.97,690.68 527.77,690.35 ZM 213.19 682.62 C221.06,678.56 228.85,674.48 230.50,673.56 C232.15,672.63 242.05,667.37 252.50,661.86 C280.61,647.04 300.92,636.08 306.00,632.99 C308.48,631.48 314.77,628.02 320.00,625.28 C337.01,616.39 365.73,600.09 391.50,584.71 C419.26,568.15 432.64,558.53 446.63,545.05 C456.46,535.58 463.74,525.47 466.46,517.49 C468.86,510.46 468.79,498.83 466.30,492.45 C461.91,481.13 446.65,463.90 432.50,454.28 C428.65,451.67 425.27,449.25 425.00,448.91 C424.73,448.57 417.08,443.65 408.00,437.98 C398.92,432.31 389.25,426.25 386.50,424.50 C383.75,422.76 378.58,419.61 375.00,417.51 C371.42,415.41 366.25,412.35 363.50,410.71 C360.75,409.07 356.70,406.70 354.50,405.46 C352.30,404.21 347.80,401.60 344.50,399.66 C341.20,397.72 336.92,395.21 335.00,394.07 C299.43,373.19 276.60,359.02 258.98,346.92 C248.27,339.55 234.64,328.65 228.45,322.51 C215.47,309.61 210.77,296.02 216.21,287.12 C222.54,276.76 231.57,267.53 244.25,258.48 C248.81,255.22 269.68,242.00 270.26,242.00 C270.53,242.00 275.78,239.07 281.94,235.49 C295.52,227.60 378.08,187.00 380.55,187.00 C380.99,187.00 385.89,184.80 403.65,176.60 C410.33,173.52 416.06,171.00 416.37,171.00 C416.69,171.00 420.00,169.62 423.72,167.94 C447.95,156.99 466.97,148.73 480.00,143.49 C493.74,137.96 504.30,133.57 528.00,123.54 C538.72,118.99 550.20,114.23 553.50,112.94 C563.74,108.96 563.77,108.00 553.64,108.00 C546.08,108.00 543.06,108.58 532.17,112.08 C504.25,121.08 496.11,123.87 462.00,136.10 C454.02,138.96 442.55,142.99 436.50,145.05 C430.45,147.12 419.88,150.91 413.00,153.49 C406.12,156.06 399.38,158.55 398.00,159.01 C396.62,159.48 392.12,161.29 388.00,163.04 C383.88,164.79 373.98,168.81 366.00,171.97 C314.97,192.19 309.66,194.47 276.50,210.53 C248.68,224.00 217.36,243.88 205.34,255.70 C196.44,264.46 192.25,269.95 188.33,278.00 C186.10,282.59 185.58,285.23 185.21,293.93 C184.94,300.17 185.25,306.59 185.98,309.93 C190.87,332.29 212.28,353.60 261.82,385.43 C266.05,388.15 275.58,394.27 283.00,399.05 C290.42,403.83 297.85,408.48 299.50,409.40 C301.15,410.31 307.90,414.41 314.50,418.51 C321.10,422.61 328.08,426.88 330.00,427.99 C334.76,430.73 366.64,450.33 376.38,456.50 C415.69,481.42 433.91,497.02 433.98,505.82 C434.04,514.22 405.35,537.27 369.50,557.64 C352.57,567.26 326.07,581.94 316.50,586.99 C311.00,589.90 302.67,594.30 298.00,596.77 C293.33,599.24 286.12,603.17 282.00,605.50 C271.80,611.27 232.72,631.16 170.70,662.16 C142.20,676.40 119.18,688.48 119.51,689.02 C119.89,689.63 134.86,690.00 159.50,690.00 L 198.88 690.00 L 213.19 682.62 Z" fill="rgb(252,252,248)"/>
</g>
</svg>