<?xml version="1.0" encoding="UTF-8"?>
<svg id="Layer_1" xmlns="http://www.w3.org/2000/svg" version="1.1" viewBox="0 0 1027 1027">
  <!-- Generator: Adobe Illustrator 30.4.0, SVG Export Plug-In . SVG Version: 2.1.4 Build 226)  -->
  <defs>
    <style>
      .st0 {
        fill: #fff;
      }
    </style>
  </defs>
  <path class="st0" d="M.68,1027.98V.98h1027v1027H.68ZM152.83,848.68l-16.6,9.13c6.8-1.74,101,4.25,103.02-4.16,40.21-20.64,109.95-58.03,149.44-79.74,115.7-67.44,249.59-123.06,64.91-222.87-14.05-8.38-109.7-64.98-121.07-71.98-22.81-15.55-104.77-60.19-80.89-93.22,22.09-32.85,61.13-49.53,94.49-68.5,96.78-49.6,210.28-96.04,310.89-138.07-7.94.12-16.57-1.69-23.6.52l-34.33,10.81c-62.17,21.62-134.9,46.42-194.98,71.85-60.49,27.98-237.56,84.07-178.81,174.97,14.55,20.18,34.41,35.15,54.66,49.39,42.18,28.93,92.58,58.39,136.59,85.2,29.4,19.77,63.07,36.42,86.51,63.48,21.32,26.76-116.63,91.1-137.52,104.41-60.19,32.61-151.27,78.21-212.71,108.78ZM667.28,831.06c24.3-27.4,61.03-68.31,83.23-97.25,35.2-44.95,86.27-105.87,50.17-164.05-29.23-43.69-91.03-62.59-136.56-84.2-22.73-9.34-97.92-39.77-119.37-48.68-24.8-10.62-50.57-20.96-71.3-38.67-14.86-18.89,106.42-77.86,122.43-88,79.1-42.31,175.97-90.13,256.18-130.83-15.74-5.44-60.34,18.29-74.83,23.08-82.46,33.27-164.91,69.6-244.09,109.91-91.46,47.03-149.43,92.33-21.93,147.11,40.11,17.37,96.1,40.23,136.05,57.94,36.02,15.95,83.83,37.43,112.94,63.1,32.29,28.06,2.08,71.78-18.52,98.46-13.45,17.76-42.19,52.27-57.34,68.65-32.11,35.92-70.93,75.09-103.69,110.29l61.61.09,25.02-26.95Z"/>
  <g>
    <path d="M152.18,848.96c61.52-30.65,152.47-76.14,212.71-108.78,20.9-13.29,158.54-77.43,137.53-104.4-23.44-27.06-57.12-43.71-86.51-63.49-44.1-26.89-94.31-56.21-136.59-85.2-20.25-14.24-40.11-29.21-54.65-49.39-58.73-90.98,118.22-146.91,178.8-174.98,59.92-25.36,133.05-50.44,194.99-71.85,0,0,34.33-10.81,34.33-10.81,7.02-2.21,15.66-.39,23.6-.52-100.74,42.13-214.01,88.45-310.89,138.07-33.36,19.01-72.39,35.64-94.49,68.5-23.9,33.06,58.2,77.74,80.89,93.23,10.84,6.7,107.55,63.91,121.07,71.97,184.68,99.76,50.73,155.52-64.91,222.87-39.47,21.74-110.47,60.89-149.6,83.47-3.61,2.08-79.23.56-102.85.44l16.6-9.13Z"/>
    <path d="M666.64,831.34l-25.02,26.95-61.61-.09c53.52-57.16,113.52-116.39,161.03-178.94,20.58-26.69,50.83-70.38,18.52-98.46-29.14-25.69-76.9-47.14-112.94-63.1-39.94-17.7-95.96-40.58-136.05-57.94-57.52-24.47-112.33-63.37-37.25-112.29,86.67-55.34,184.03-94.19,278.4-134.58,16.46-7.47,61.78-24.66,78.77-32.11,6.17-2.51,13.82-1.44,20.94-1.12-80.3,40.77-177.01,88.5-256.18,130.83-38.76,22.62-90.44,44.84-121.32,77.8-2.42,2.74-1.06,12.36,1.85,14.64l10.5,6.11c65.23,36.36,153.99,64.23,221.68,96.29,123.49,51.74,133.46,118.68,49.44,219.14-25,33.12-63.01,75.83-90.75,106.86Z"/>
  </g>
</svg>