<svg xmlns="http://www.w3.org/2000/svg" viewBox="0 0 1027 1027">
  <!-- SENDA favicon — dark background, double-S mark in off-white -->
  <!-- Background: rounded square in brand ink -->
  <rect width="1027" height="1027" fill="#1a1916" rx="180"/>
  <!-- Double-S mark, recoloured from dark to off-white -->
  <path fill="#faf9f6" d="M152.18,848.96c61.52-30.65,152.47-76.14,212.71-108.78,20.9-13.29,158.54-77.43,137.53-104.4-23.44-27.06-57.12-43.71-86.51-63.49-44.1-26.89-94.31-56.21-136.59-85.2-20.25-14.24-40.11-29.21-54.65-49.39-58.73-90.98,118.22-146.91,178.8-174.98,59.92-25.36,133.05-50.44,194.99-71.85,0,0,34.33-10.81,34.33-10.81,7.02-2.21,15.66-.39,23.6-.52-100.74,42.13-214.01,88.45-310.89,138.07-33.36,19.01-72.39,35.64-94.49,68.5-23.9,33.06,58.2,77.74,80.89,93.23,10.84,6.7,107.55,63.91,121.07,71.97,184.68,99.76,50.73,155.52-64.91,222.87-39.47,21.74-110.47,60.89-149.6,83.47-3.61,2.08-79.23.56-102.85.44l16.6-9.13Z"/>
  <path fill="#faf9f6" d="M666.64,831.34l-25.02,26.95-61.61-.09c53.52-57.16,113.52-116.39,161.03-178.94,20.58-26.69,50.83-70.38,18.52-98.46-29.14-25.69-76.9-47.14-112.94-63.1-39.94-17.7-95.96-40.58-136.05-57.94-57.52-24.47-112.33-63.37-37.25-112.29,86.67-55.34,184.03-94.19,278.4-134.58,16.46-7.47,61.78-24.66,78.77-32.11,6.17-2.51,13.82-1.44,20.94-1.12-80.3,40.77-177.01,88.5-256.18,130.83-38.76,22.62-90.44,44.84-121.32,77.8-2.42,2.74-1.06,12.36,1.85,14.64l10.5,6.11c65.23,36.36,153.99,64.23,221.68,96.29,123.49,51.74,133.46,118.68,49.44,219.14-25,33.12-63.01,75.83-90.75,106.86Z"/>
</svg>
