<svg xmlns="http://www.w3.org/2000/svg" width="1100" height="390" viewBox="0 0 1100 390">
<g>
<path d="M 574.95 243.59 C566.35,245.81 509.00,246.97 509.00,244.93 C509.00,243.61 523.18,195.04 530.01,173.00 C532.13,166.12 534.41,158.36 535.06,155.75 L 536.24 151.00 L 562.87 151.02 C590.99,151.04 599.03,151.92 606.64,155.83 C618.01,161.68 621.97,172.99 618.54,189.80 C612.15,221.15 598.98,237.40 574.95,243.59 ZM 416.10 243.25 L 415.05 246.00 L 402.58 246.00 C395.73,246.00 389.92,245.66 389.69,245.25 C389.45,244.84 390.80,239.32 392.70,233.00 C400.93,205.51 407.48,183.37 411.93,168.00 L 416.70 151.50 L 431.24 151.22 L 445.77 150.95 L 449.83 163.72 C452.07,170.75 456.21,184.38 459.04,194.00 C461.88,203.62 464.43,212.18 464.72,213.00 C465.03,213.88 465.77,212.63 466.49,210.00 C467.18,207.52 469.86,198.30 472.46,189.50 C475.06,180.70 478.62,168.55 480.37,162.50 L 483.56 151.50 L 496.90 151.22 C507.41,151.00 510.13,151.21 509.75,152.22 C509.11,153.89 492.88,208.55 487.84,226.00 C485.70,233.43 483.47,240.97 482.89,242.78 L 481.83 246.06 L 468.16 245.78 L 454.50 245.50 L 449.50 230.49 C446.75,222.23 442.29,208.17 439.58,199.24 C436.87,190.31 434.40,183.01 434.08,183.01 C433.76,183.02 429.82,195.96 425.33,211.76 C420.83,227.57 416.68,241.74 416.10,243.25 ZM 657.16 222.00 L 642.59 246.00 L 629.36 246.00 C622.08,246.00 615.93,245.66 615.71,245.25 C615.34,244.58 626.38,227.36 664.78,168.73 L 676.41 150.96 L 693.96 151.23 L 711.50 151.50 L 712.18 162.00 C713.74,185.94 717.00,241.03 717.00,243.45 L 717.00 246.06 L 703.25 245.78 L 689.50 245.50 L 688.94 222.00 ZM 367.24 238.25 L 364.89 246.00 L 287.78 246.00 L 288.44 243.25 C289.17,240.20 296.33,215.77 301.69,198.00 C303.60,191.68 307.49,178.62 310.33,169.00 L 315.50 151.50 L 353.25 151.24 C374.01,151.09 391.00,151.34 391.00,151.79 C391.00,152.24 389.95,155.74 388.66,159.56 L 386.32 166.50 L 362.36 166.77 L 338.41 167.03 L 335.36 177.52 L 332.32 188.00 L 354.23 188.00 C374.61,188.00 376.10,188.12 375.65,189.75 C375.38,190.71 374.45,194.02 373.60,197.09 L 372.04 202.69 L 356.86 203.34 C348.51,203.70 338.46,204.00 334.53,204.00 L 327.38 204.00 L 323.94 215.75 C322.05,222.21 320.50,227.95 320.50,228.50 C320.50,229.13 329.68,229.69 345.04,230.00 L 369.58 230.50 ZM 240.50 245.05 C233.40,247.01 229.37,247.32 204.75,247.74 C181.75,248.14 177.00,247.99 177.01,246.86 C177.02,246.11 177.83,242.80 178.82,239.50 L 180.62 233.50 L 204.56 232.93 C217.85,232.61 229.94,231.87 231.75,231.25 C239.78,228.50 244.54,221.75 241.91,216.84 C239.92,213.11 237.14,211.42 222.50,205.02 C200.34,195.33 196.42,191.66 196.67,180.83 C197.01,166.33 210.18,155.20 231.38,151.54 C237.69,150.45 247.18,150.00 264.13,150.00 C277.26,150.00 288.00,150.27 288.00,150.59 C288.00,150.92 287.06,154.30 285.90,158.09 L 283.81 165.00 L 261.08 165.00 C232.16,165.00 227.07,166.40 225.39,174.79 C224.39,179.80 229.18,183.77 242.50,188.95 C261.73,196.44 267.12,199.84 270.09,206.38 C272.39,211.45 272.46,215.07 270.42,221.94 C267.35,232.29 256.56,240.62 240.50,245.05 ZM 541.00 229.14 C541.00,230.33 561.69,230.22 566.04,229.01 C575.05,226.50 581.32,218.43 586.63,202.50 C591.49,187.91 592.39,175.99 588.93,171.63 C585.43,167.19 581.34,166.00 569.65,166.00 L 559.24 166.00 L 558.16 170.25 C557.57,172.59 553.46,186.60 549.04,201.39 C544.62,216.18 541.00,228.67 541.00,229.14 ZM 832.00 254.25 C823.01,258.75 822.07,259.01 814.50,258.98 L 806.50 258.96 L 827.59 248.12 C861.58,230.65 870.49,224.80 868.40,221.33 C867.07,219.14 858.71,213.42 842.58,203.69 C820.35,190.28 814.95,182.68 821.98,174.68 C826.21,169.85 834.52,164.92 847.69,159.39 C862.44,153.21 888.51,144.00 891.25,144.00 C892.49,144.01 884.14,148.03 872.71,152.95 C838.96,167.47 825.00,175.76 825.00,181.27 C825.00,184.57 831.76,189.86 849.56,200.50 C870.26,212.88 875.40,217.22 875.40,222.35 C875.40,225.25 874.60,226.83 871.50,230.00 C868.00,233.58 855.29,241.81 846.00,246.51 C844.08,247.48 842.28,248.55 842.00,248.89 C841.72,249.23 837.22,251.64 832.00,254.25 ZM 888.96 259.00 C886.87,259.00 884.45,259.27 883.58,259.61 C882.71,259.94 882.00,259.91 882.00,259.54 C882.00,259.18 887.23,253.20 893.62,246.27 C906.78,231.98 910.43,227.31 913.17,221.26 C915.29,216.58 914.70,214.12 910.63,210.71 C907.40,208.00 895.14,201.98 878.70,195.02 C863.48,188.59 857.00,184.17 857.00,180.25 C857.00,176.20 864.17,171.02 881.50,162.54 C899.37,153.80 922.68,144.00 925.62,144.00 C926.57,144.00 921.98,146.65 915.42,149.88 C887.63,163.59 863.00,177.75 863.00,180.02 C863.00,181.50 870.55,185.25 887.50,192.19 C915.65,203.70 921.00,207.79 921.00,217.80 C921.00,224.36 916.94,230.71 900.44,250.01 C893.26,258.40 892.49,259.00 888.96,259.00 ZM 670.86 199.25 L 666.10 207.00 L 689.00 207.00 L 689.00 189.00 C689.00,179.10 688.64,171.00 688.19,171.00 C687.75,171.00 684.74,175.61 681.50,181.25 C678.26,186.89 673.47,194.99 670.86,199.25 Z" fill="rgb(242,242,242)"/>
</g>
</svg>